# This file uses centimeters as units for non-parametric coordinates.

mtllib letter_room.mtl
g default
v -0.029102 0.130428 -0.695914
v 0.007097 0.130428 -0.695914
v -0.029102 0.132001 -0.695914
v 0.007097 0.132001 -0.695914
v -0.029102 0.132001 -0.718206
v 0.007097 0.132001 -0.718206
v -0.029102 0.130428 -0.718206
v 0.007097 0.130428 -0.718206
v -0.025564 0.132956 -0.698664
v 0.003559 0.132956 -0.698664
v 0.003559 0.132956 -0.715455
v -0.025564 0.132956 -0.715455
v -0.025564 0.129473 -0.715455
v 0.003559 0.129473 -0.715455
v 0.003559 0.129473 -0.698664
v -0.025564 0.129473 -0.698664
v -0.005323 0.129443 -0.665532
v 0.017637 0.129443 -0.678789
v -0.005235 0.130131 -0.665378
v 0.017727 0.130131 -0.678635
v -0.025225 0.137954 -0.700004
v -0.002265 0.137954 -0.713260
v -0.025314 0.137267 -0.700155
v -0.002352 0.137266 -0.713413
v -0.012468 0.131115 -0.677887
v 0.010509 0.131115 -0.691153
v -0.019057 0.136982 -0.689300
v 0.003920 0.136982 -0.702566
v -0.018964 0.137679 -0.689138
v -0.012561 0.130418 -0.678049
v 0.010416 0.130418 -0.691315
v 0.004014 0.137679 -0.702404
vt 0.375752 0.967793
vt 0.209435 0.967793
vt 0.209435 0.801475
vt 0.375752 0.801475
vt 0.377198 0.801475
vt 0.210881 0.801475
vt 0.210881 0.635158
vt 0.377198 0.635158
vt 0.375752 0.635158
vt 0.209435 0.635158
vt 0.209435 0.468841
vt 0.375752 0.468841
vt 0.371414 0.468841
vt 0.205097 0.468841
vt 0.205097 0.302524
vt 0.371414 0.302524
vt 0.047455 0.967793
vt 0.047455 0.801475
vt 0.546407 0.967793
vt 0.546407 0.801475
vt 0.209435 0.302524
vt 0.375752 0.302524
vt 0.577773 0.069325
vt 0.776733 0.069310
vt 0.776555 0.260177
vt 0.577831 0.259943
vt 0.776566 0.333863
vt 0.577938 0.333863
vt 0.577942 0.466004
vt 0.776564 0.465983
vt 0.776572 0.658851
vt 0.577935 0.658799
vt 0.577937 0.791817
vt 0.776567 0.791770
vt 0.776611 0.861408
vt 0.577894 0.861408
vt 0.846496 0.069542
vt 0.846496 0.259381
vt 0.777035 0.259386
vt 0.508008 0.259381
vt 0.507960 0.069587
vt 0.378701 0.068986
vt 0.438321 0.069949
vt 0.438369 0.259628
vt 0.378694 0.260493
vt 0.776566 0.722131
vt 0.577938 0.722131
vt 0.916232 0.259593
vt 0.916185 0.069950
vt 0.975803 0.068972
vt 0.975811 0.260499
vt 0.577937 0.403552
vt 0.776567 0.403504
vn 0.000000 0.000000 1.000000
vn 0.000000 0.000000 1.000000
vn 0.000000 0.000000 1.000000
vn 0.000000 0.000000 1.000000
vn 0.000000 1.000000 0.000000
vn 0.000000 1.000000 0.000000
vn 0.000000 1.000000 0.000000
vn 0.000000 1.000000 0.000000
vn 0.000000 0.000000 -1.000000
vn 0.000000 0.000000 -1.000000
vn 0.000000 0.000000 -1.000000
vn 0.000000 0.000000 -1.000000
vn 0.000000 -1.000000 0.000000
vn 0.000000 -1.000000 0.000000
vn 0.000000 -1.000000 0.000000
vn 0.000000 -1.000000 0.000000
vn 1.000000 0.000000 0.000000
vn 1.000000 0.000000 0.000000
vn 1.000000 0.000000 0.000000
vn 1.000000 0.000000 0.000000
vn -1.000000 0.000000 0.000000
vn -1.000000 0.000000 0.000000
vn -1.000000 0.000000 0.000000
vn -1.000000 0.000000 0.000000
vn 0.000000 0.944640 0.328108
vn 0.000000 0.944640 0.328108
vn 0.000000 0.944640 0.328108
vn 0.000000 0.944640 0.328108
vn 0.260651 0.965433 0.000000
vn 0.260651 0.965433 0.000000
vn 0.260651 0.965433 0.000000
vn 0.260651 0.965433 0.000000
vn 0.000000 0.944640 -0.328109
vn 0.000000 0.944640 -0.328109
vn 0.000000 0.944640 -0.328109
vn 0.000000 0.944640 -0.328109
vn -0.260647 0.965434 0.000000
vn -0.260647 0.965434 0.000000
vn -0.260647 0.965434 0.000000
vn -0.260647 0.965434 0.000000
vn 0.000000 -0.944640 -0.328109
vn 0.000000 -0.944640 -0.328109
vn 0.000000 -0.944640 -0.328109
vn 0.000000 -0.944640 -0.328109
vn 0.260651 -0.965433 0.000000
vn 0.260651 -0.965433 0.000000
vn 0.260651 -0.965433 0.000000
vn 0.260651 -0.965433 0.000000
vn 0.000000 -0.944641 0.328107
vn 0.000000 -0.944641 0.328107
vn 0.000000 -0.944641 0.328107
vn 0.000000 -0.944641 0.328107
vn -0.260647 -0.965434 0.000000
vn -0.260647 -0.965434 0.000000
vn -0.260647 -0.965434 0.000000
vn -0.260647 -0.965434 0.000000
vn -0.035175 -0.999379 -0.002254
vn 0.015640 -0.999379 -0.031584
vn 0.078591 0.992932 0.088931
vn 0.037723 0.992931 0.112535
vn 0.159056 0.963722 0.214338
vn 0.106095 0.963722 0.244916
vn -0.041854 0.999035 -0.013294
vn 0.009414 0.999035 -0.042903
vn -0.019517 -0.996669 -0.079178
vn -0.058820 -0.996669 -0.056497
vn -0.152911 -0.964004 -0.217518
vn -0.111919 -0.964005 -0.241183
vn -0.156368 -0.965342 -0.208961
vn 0.109194 0.965669 0.235713
vn -0.102782 -0.965342 -0.239897
vn 0.149538 0.965669 0.212418
s off
g Letter
usemtl letter_SD
f 1/1/1 2/2/2 4/3/3 3/4/4
f 9/5/5 10/6/6 11/7/7 12/8/8
f 5/9/9 6/10/10 8/11/11 7/12/12
f 13/13/13 14/14/14 15/15/15 16/16/16
f 2/2/17 8/17/18 6/18/19 4/3/20
f 7/19/21 1/1/22 3/4/23 5/20/24
f 3/4/25 4/3/26 10/6/27 9/5/28
f 4/3/29 6/10/30 11/7/31 10/6/32
f 6/10/33 5/9/34 12/8/35 11/7/36
f 5/9/37 3/4/38 9/5/39 12/8/40
f 7/12/41 8/11/42 14/14/43 13/13/44
f 8/11/45 2/21/46 15/15/47 14/14/48
f 2/21/49 1/22/50 16/16/51 15/15/52
f 1/22/53 7/12/54 13/13/55 16/16/56
s 1
f 17/23/57 18/24/58 20/25/59 19/26/60
f 19/26/60 20/25/59 26/27/61 25/28/62
f 21/29/63 22/30/64 24/31/65 23/32/66
f 30/33/67 31/34/68 18/35/58 17/36/57
f 18/24/58 31/37/68 26/38/61 20/39/59
f 25/40/62 30/41/67 17/23/57 19/26/60
f 23/42/66 27/43/69 29/44/70 21/45/63
f 23/32/66 24/31/65 28/46/71 27/47/69
f 32/48/72 28/49/71 24/50/65 22/51/64
f 29/52/70 32/53/72 22/30/64 21/29/63
f 29/44/70 27/43/69 30/41/67 25/40/62
f 27/47/69 28/46/71 31/34/68 30/33/67
f 26/38/61 31/37/68 28/49/71 32/48/72
f 25/28/62 26/27/61 32/53/72 29/52/70
